# xmcd
#
# Track frame offsets:
#	150
#	16367
#	30960
#	48449
#	64899
#	83034
#	97485
#	113112
#	128273
#	144429
#	162481
#	186934
#
# Disc length: 2561 seconds
# Revision: 0
# Processed by: cddbd v1.5.2PL0 Copyright (c) Steve Scherf et al.
# Submitted via: dBpowerAMP V12.0
#
DISCID=9c09ff0c
DTITLE=Jamelia - Superstar - The Hits
DYEAR=2007
DGENRE=
TTITLE0=Superstar
TTITLE1=Thank You
TTITLE2=See It In A Boy's Eyes
TTITLE3=Stop
TTITLE4=Money [feat. Beenie Man]
TTITLE5=Beware The Dog
TTITLE6=DJ
TTITLE7=Something About you
TTITLE8=Call Me
TTITLE9=Bout [feat. Rah Digga]
TTITLE10=No More
TTITLE11=DATA
EXTD=
EXTT0=
EXTT1=
EXTT2=
EXTT3=
EXTT4=
EXTT5=
EXTT6=
EXTT7=
EXTT8=
EXTT9=
EXTT10=
EXTT11=
PLAYORDER=
